<svg width="263" height="144" viewBox="0 0 263 144" fill="none" xmlns="http://www.w3.org/2000/svg">
<g clip-path="url(#clip0_553_36338)">
<path d="M43.2297 68.6576V26.2214C43.2297 25.6154 43.4693 25.0342 43.8957 24.6057C44.3221 24.1771 44.9005 23.9364 45.5035 23.9364C46.1065 23.9364 46.6849 24.1771 47.1113 24.6057C47.5377 25.0342 47.7772 25.6154 47.7772 26.2214V68.6576C47.7772 69.2636 47.5377 69.8448 47.1113 70.2733C46.6849 70.7018 46.1065 70.9426 45.5035 70.9426C44.9005 70.9426 44.3221 70.7018 43.8957 70.2733C43.4693 69.8448 43.2297 69.2636 43.2297 68.6576Z" fill="#F0F0F0"/>
<path d="M37.7891 68.6576V26.2214C37.7891 25.6154 38.0286 25.0342 38.455 24.6057C38.8814 24.1771 39.4598 23.9364 40.0628 23.9364C40.6658 23.9364 41.2442 24.1771 41.6706 24.6057C42.097 25.0342 42.3366 25.6154 42.3366 26.2214V68.6576C42.3366 69.2636 42.097 69.8448 41.6706 70.2733C41.2442 70.7018 40.6658 70.9426 40.0628 70.9426C39.4598 70.9426 38.8814 70.7018 38.455 70.2733C38.0286 69.8448 37.7891 69.2636 37.7891 68.6576Z" fill="#F0F0F0"/>
<path d="M32.3481 68.6576V26.2214C32.3481 25.6154 32.5877 25.0342 33.0141 24.6057C33.4405 24.1771 34.0189 23.9364 34.6219 23.9364C35.2249 23.9364 35.8033 24.1771 36.2297 24.6057C36.6561 25.0342 36.8956 25.6154 36.8956 26.2214V68.6576C36.8956 69.2636 36.6561 69.8448 36.2297 70.2733C35.8033 70.7018 35.2249 70.9426 34.6219 70.9426C34.0189 70.9426 33.4405 70.7018 33.0141 70.2733C32.5877 69.8448 32.3481 69.2636 32.3481 68.6576Z" fill="#F0F0F0"/>
<path d="M237.767 136.437C236.851 136.437 235.942 136.279 235.08 135.968L234.947 135.92L235.009 135.624C233.465 132.49 234.005 128.197 236.39 124.667C238.559 121.458 241.857 119.125 244.766 117.066C245.135 116.805 245.574 116.661 246.025 116.652C246.476 116.644 246.92 116.771 247.299 117.017C247.678 117.264 247.975 117.619 248.151 118.037C248.328 118.454 248.376 118.915 248.29 119.361L247.249 124.725C246.498 128.595 245.605 132.258 242.956 134.542C241.501 135.766 239.664 136.436 237.767 136.437Z" fill="#E6E6E6"/>
<path d="M244.58 145.706C243.573 145.7 242.582 145.442 241.699 144.953C240.817 144.465 240.069 143.763 239.525 142.91L239.449 142.792L239.629 142.633C240.095 140.081 242.284 137.807 245.224 136.829C247.895 135.94 250.845 136.086 253.445 136.213C253.789 136.23 254.12 136.349 254.396 136.555C254.673 136.761 254.882 137.045 254.997 137.371C255.113 137.696 255.13 138.049 255.046 138.384C254.962 138.72 254.78 139.022 254.525 139.254L251.599 141.908C249.473 143.836 247.352 145.578 244.794 145.702C244.723 145.705 244.651 145.707 244.58 145.706Z" fill="#E6E6E6"/>
<path d="M235.5 148.544C235.068 145.31 234.624 142.035 234.927 138.767C235.196 135.865 236.058 133.03 237.812 130.706C238.74 129.478 239.873 128.423 241.162 127.588C241.496 127.371 241.805 127.916 241.471 128.132C239.237 129.589 237.519 131.719 236.563 134.217C235.494 137.009 235.322 140.054 235.506 143.02C235.618 144.814 235.854 146.596 236.092 148.376C236.111 148.456 236.099 148.54 236.06 148.612C236.02 148.684 235.955 148.738 235.877 148.764C235.838 148.774 235.797 148.777 235.757 148.772C235.717 148.766 235.678 148.753 235.643 148.733C235.608 148.712 235.577 148.685 235.553 148.653C235.528 148.62 235.51 148.583 235.5 148.544Z" fill="#F2F2F2"/>
<path d="M234.279 150.402C236.359 146.622 238.771 142.42 243.081 141.077C244.278 140.705 245.536 140.572 246.784 140.685C247.177 140.719 247.078 141.342 246.686 141.307C244.59 141.13 242.499 141.699 240.778 142.913C239.112 144.078 237.815 145.698 236.717 147.415C236.044 148.467 235.442 149.564 234.839 150.659C234.647 151.009 234.084 150.757 234.279 150.402Z" fill="#F2F2F2"/>
<path d="M233.343 150.347L235.443 150.395L222.781 82.42L220.681 82.8176L223.988 100.451H213.336L216.642 82.8176L214.542 82.42L201.986 150.395L203.98 150.347L210.582 115.141H226.742L233.343 150.347ZM211.071 112.529L212.846 103.063H224.477L226.252 112.529H211.071Z" fill="#FBFBFB"/>
<path d="M141.651 69.7403V47.4171C141.651 46.7543 142.671 46.2151 143.924 46.2151C145.178 46.2151 146.198 46.7543 146.198 47.4171V69.7403C146.198 70.4031 145.178 70.9423 143.924 70.9423C142.671 70.9423 141.651 70.4031 141.651 69.7403Z" fill="#F0F0F0"/>
<path d="M136.21 69.7403V47.4171C136.21 46.7543 137.23 46.2151 138.484 46.2151C139.737 46.2151 140.757 46.7543 140.757 47.4171V69.7403C140.757 70.4031 139.737 70.9423 138.484 70.9423C137.23 70.9423 136.21 70.4031 136.21 69.7403Z" fill="#F0F0F0"/>
<path d="M130.769 69.7403V47.4171C130.769 46.7543 131.789 46.2151 133.043 46.2151C134.297 46.2151 135.317 46.7543 135.317 47.4171V69.7403C135.317 70.4031 134.297 70.9423 133.043 70.9423C131.789 70.9423 130.769 70.4031 130.769 69.7403Z" fill="#F0F0F0"/>
<path d="M176.541 53.3239C176.531 53.2561 176.507 53.1911 176.47 53.1333C176.433 53.0755 176.385 53.026 176.328 52.9882L159.186 41.6157C159.445 41.5074 159.661 41.3172 159.801 41.0741C159.973 40.7739 160.019 40.4179 159.93 40.0837C159.841 39.7495 159.624 39.4643 159.326 39.2904L157.919 38.4744C157.621 38.3022 157.266 38.2559 156.934 38.3455C156.601 38.435 156.318 38.6532 156.145 38.9523C156.051 39.1167 155.995 39.2998 155.98 39.4886L143.606 31.2793C143.191 30.2679 142.561 29.3597 141.76 28.618C140.96 27.8763 140.008 27.319 138.971 26.9848V23.3652H134.423V26.9848C132.915 27.4696 131.598 28.4237 130.664 29.7093C129.73 30.9949 129.227 32.5456 129.226 34.1374V35.1167H133.774C133.774 35.8959 134.082 36.6432 134.63 37.1941C135.178 37.7451 135.922 38.0546 136.697 38.0546C137.473 38.0546 138.216 37.7451 138.764 37.1941C139.313 36.6432 139.621 35.8959 139.621 35.1167H144.168V34.1374C144.168 33.668 144.124 33.1996 144.037 32.7384L175.339 53.5059L162.336 69.3935C162.235 69.393 162.135 69.3921 162.033 69.3921C160.996 69.3921 159.991 69.4167 159.033 69.4592C159.091 69.2978 159.116 69.1265 159.107 68.9552C159.088 68.6098 158.934 68.2859 158.678 68.0543C158.422 67.8227 158.086 67.7022 157.742 67.7192L156.12 67.8041C155.776 67.8232 155.454 67.9781 155.224 68.2352C154.993 68.4922 154.873 68.8305 154.89 69.1761C154.902 69.3802 154.962 69.5785 155.066 69.7545C152.198 70.0608 150.34 70.483 150.34 70.6978C150.34 71.0498 155.33 70.7147 161.576 70.6986C161.605 70.7802 161.654 70.8527 161.72 70.9086C161.786 70.9646 161.865 71.0019 161.95 71.0169C162.035 71.0318 162.122 71.0239 162.203 70.9937C162.284 70.9636 162.355 70.9125 162.41 70.8456L162.53 70.6986C168.757 70.7161 173.727 71.049 173.727 70.6978C173.727 70.3666 169.309 69.5428 163.584 69.4106L176.436 53.7079C176.479 53.6549 176.511 53.5933 176.529 53.5271C176.547 53.461 176.551 53.3918 176.541 53.3239Z" fill="#CCCCCC"/>
<path d="M177.01 150.51H136.987C136.178 150.509 135.403 150.186 134.831 149.611C134.259 149.037 133.937 148.257 133.936 147.444V81.4347C133.935 80.7084 133.648 80.0122 133.137 79.4986C132.626 78.9851 131.933 78.6962 131.21 78.6954H37.5916C36.8689 78.6962 36.176 78.9851 35.665 79.4986C35.154 80.0122 34.8665 80.7084 34.8657 81.4347V147.444C34.8647 148.257 34.543 149.037 33.9711 149.611C33.3992 150.186 32.6238 150.509 31.8149 150.51H30.4455C29.6367 150.509 28.8612 150.186 28.2893 149.611C27.7174 149.037 27.3957 148.257 27.3948 147.444V77.8794C27.3969 75.9321 28.1676 74.0652 29.5378 72.6883C30.9079 71.3113 32.7656 70.5368 34.7033 70.5346H172.752C174.69 70.5368 176.548 71.3114 177.918 72.6883C179.288 74.0652 180.059 75.9321 180.061 77.8794V147.444C180.06 148.257 179.738 149.037 179.166 149.611C178.594 150.186 177.819 150.509 177.01 150.51Z" fill="#E4E4E4"/>
<path d="M179.898 87.6722H134.099V89.6308H179.898V87.6722Z" fill="white"/>
<path d="M179.898 114.113H134.099V116.072H179.898V114.113Z" fill="white"/>
<path d="M96.1866 70.2122L94.8703 69.6552L93.9673 63.0238H81.9423L80.9635 69.6281L79.7859 70.2199C79.7296 70.2482 79.6844 70.2948 79.6577 70.3522C79.631 70.4095 79.6244 70.4742 79.6388 70.5358C79.6533 70.5974 79.6881 70.6523 79.7374 70.6916C79.7868 70.7309 79.848 70.7523 79.911 70.7523H96.0781C96.1427 70.7523 96.2052 70.7298 96.2552 70.6888C96.3052 70.6477 96.3395 70.5905 96.3522 70.5269C96.365 70.4633 96.3555 70.3972 96.3253 70.3398C96.2951 70.2825 96.2461 70.2374 96.1866 70.2122Z" fill="#E6E6E6"/>
<path d="M117.556 63.9061H58.4858C58.1759 63.9054 57.8789 63.7811 57.66 63.5607C57.4411 63.3402 57.3181 63.0414 57.3181 62.73V54.359H118.723V62.73C118.723 63.0414 118.6 63.3402 118.382 63.5607C118.163 63.7811 117.866 63.9054 117.556 63.9061Z" fill="#CCCCCC"/>
<path d="M118.785 58.3153H57.2642V22.4979C57.2646 22.122 57.4134 21.7616 57.6778 21.4958C57.9423 21.2301 58.3009 21.0806 58.675 21.0801H117.374C117.748 21.0806 118.107 21.2301 118.371 21.4958C118.636 21.7616 118.785 22.122 118.785 22.4979V58.3153Z" fill="#3F3D56"/>
<path d="M115.111 55.7157H60.9387C60.6503 55.7154 60.3739 55.6002 60.17 55.3953C59.9661 55.1903 59.8514 54.9125 59.8511 54.6227V24.7728C59.8514 24.483 59.9661 24.2051 60.17 24.0002C60.3739 23.7953 60.6503 23.68 60.9387 23.6797H115.111C115.399 23.68 115.676 23.7953 115.88 24.0002C116.083 24.2051 116.198 24.483 116.198 24.7728V54.6227C116.198 54.9125 116.083 55.1903 115.88 55.3953C115.676 55.6002 115.399 55.7154 115.111 55.7157Z" fill="white"/>
<path d="M175.839 27.1065C176.357 27.0314 176.885 27.0715 177.386 27.2238C177.888 27.3762 178.349 27.6371 178.739 27.9882C179.129 28.3393 179.438 28.772 179.643 29.2559C179.849 29.7398 179.946 30.2632 179.929 30.789L191.806 35.3834L186.425 39.2471L175.971 34.2918C175.094 34.2037 174.279 33.7953 173.682 33.1441C173.084 32.4928 172.745 31.6439 172.729 30.7582C172.713 29.8725 173.02 29.0116 173.594 28.3385C174.167 27.6655 174.966 27.2271 175.839 27.1065Z" fill="#9E616A"/>
<path d="M220.936 24.8511L222.945 28.5224C222.46 30.851 221.205 32.946 219.385 34.467C216.308 37.0744 200.223 46.7854 200.223 46.7854L179.916 36.5402L183.468 31.7962L199.411 37.1656C205.325 31.5533 212.462 27.4069 220.253 25.0571L220.936 24.8511Z" fill="#E4E4E4"/>
<path d="M217.2 85.6016C225.953 85.6016 233.048 83.2781 233.048 80.4119C233.048 77.5458 225.953 75.2223 217.2 75.2223C208.447 75.2223 201.352 77.5458 201.352 80.4119C201.352 83.2781 208.447 85.6016 217.2 85.6016Z" fill="#FBFBFB"/>
<path d="M181.646 145.949L177.437 144.78L179.921 127.911L186.133 129.637L181.646 145.949Z" fill="#9E616A"/>
<path d="M181.591 150.347L168.022 146.577L168.069 146.405C168.456 144.997 169.384 143.802 170.648 143.082C171.913 142.361 173.41 142.175 174.811 142.564L174.811 142.564L183.099 144.867L181.591 150.347Z" fill="#2F2E41"/>
<path d="M169.444 146.004L165.45 144.232L170.352 127.906L176.247 130.522L169.444 146.004Z" fill="#9E616A"/>
<path d="M168.753 150.347L155.875 144.632L155.946 144.468C156.534 143.132 157.625 142.085 158.98 141.558C160.335 141.03 161.843 141.065 163.173 141.655L163.173 141.655L171.039 145.146L168.753 150.347Z" fill="#2F2E41"/>
<path d="M229.534 67.7238C229.534 67.7238 231.651 74.3155 218.662 82.6516L201.933 99.4036L184.551 141.189L174.232 136.539L176.256 131.11L177.614 127.467L178.309 125.603L179.053 123.605L190.101 93.9697L199.381 77.6405L199.65 68.78L201.933 62.5342L218.494 56.6287L229.534 67.7238Z" fill="#2F2E41"/>
<path d="M221.088 68.0502C221.088 68.0502 223.205 74.6419 210.216 82.978L193.488 99.7301L176.106 141.515L165.786 136.866L167.81 131.437L169.168 127.794L169.863 125.93L170.608 123.932L181.656 94.2961L184.763 88.8287C188.862 81.6159 193.843 74.9467 199.59 68.9767L202.636 65.8123L202.961 60.9158L210.048 56.9552L221.088 68.0502Z" fill="#2F2E41"/>
<path d="M211.081 35.7806L216.279 24.6819L225.348 23.4386C225.348 23.4386 232.43 32.5059 230.571 45.2471C229.873 50.0251 229.305 54.7819 229.271 58.9572C229.262 60.0682 230.23 60.5643 230.246 61.5687C230.262 62.5553 228.413 64.1625 228.947 64.833C229.71 65.7572 230.164 66.8992 230.246 68.0973C229.602 69.6368 210.121 61.2965 201.933 62.5342L211.081 35.7806Z" fill="#E4E4E4"/>
<path d="M223.963 17.851C226.278 13.9373 224.998 8.87865 221.103 6.55218C217.209 4.2257 212.175 5.51241 209.86 9.42612C207.545 13.3398 208.825 18.3985 212.72 20.725C216.614 23.0514 221.648 21.7647 223.963 17.851Z" fill="#9E616A"/>
<path d="M222.156 10.6786C222.14 10.8955 222.119 11.1828 222.094 11.5078C222.068 12.3975 222.318 13.2734 222.808 14.0148C223.267 14.7947 222.719 19.5056 222.719 19.5056C236.157 10.0925 225.539 0.63558 221.386 1.47624C221.473 0.279169 218.085 0.753391 218.085 0.753391C216.795 -1.26651 213.966 1.41474 213.966 1.41474L214.512 0.49194C212.316 1.05331 210.145 7.87431 210.145 7.87431C210.89 10.817 222.243 9.48149 222.156 10.6786Z" fill="#2F2E41"/>
<path d="M170.029 40.1465C174.646 33.9741 178.297 27.1278 180.853 19.8454C181.001 19.4098 180.991 18.9355 180.823 18.507C180.656 18.0785 180.343 17.7235 179.939 17.5053L164.138 8.99675C163.883 8.85806 163.599 8.77981 163.309 8.76797C163.019 8.75613 162.729 8.811 162.463 8.92842C162.193 9.04673 161.952 9.22559 161.76 9.4514C161.569 9.6772 161.431 9.944 161.357 10.2315C159.518 17.249 156.061 23.7329 151.265 29.1586C151.068 29.3794 150.923 29.6426 150.843 29.9281C150.762 30.2137 150.747 30.514 150.799 30.8062C150.849 31.0938 150.963 31.3661 151.134 31.6024C151.305 31.8387 151.527 32.0328 151.783 32.1698L167.584 40.6784C167.988 40.895 168.456 40.9604 168.904 40.863C169.351 40.7656 169.75 40.5117 170.029 40.1465Z" fill="#CCCCCC"/>
<path d="M168.95 39.3323C168.865 39.4389 168.746 39.5124 168.613 39.54C168.48 39.5676 168.341 39.5477 168.221 39.4837L152.42 30.975C152.343 30.9348 152.277 30.8773 152.226 30.8069C152.175 30.7366 152.141 30.6554 152.127 30.5697C152.11 30.4792 152.115 30.386 152.14 30.2976C152.165 30.2092 152.211 30.1279 152.273 30.0601C157.209 24.4745 160.768 17.7995 162.661 10.5753C162.683 10.486 162.726 10.403 162.785 10.3329C162.844 10.2627 162.918 10.2073 163.002 10.1709C163.081 10.1353 163.168 10.1187 163.254 10.1223C163.341 10.1259 163.426 10.1496 163.501 10.1916L179.302 18.7001C179.422 18.7651 179.515 18.8701 179.566 18.9969C179.617 19.1237 179.622 19.2643 179.581 19.3946C177.07 26.5466 173.485 33.2703 168.95 39.3323Z" fill="white"/>
<path d="M163.423 18.2755L174.321 24.6951C175.405 25.3338 176.387 23.6417 175.305 23.0039L164.406 16.5843C163.322 15.9455 162.34 17.6378 163.423 18.2755Z" fill="#1F384C"/>
<path d="M161.474 21.8662L172.372 28.2859C173.456 28.9246 174.438 27.2324 173.356 26.5947L162.457 20.175C161.373 19.5363 160.391 21.2285 161.474 21.8662Z" fill="#1F384C"/>
<path d="M159.2 25.7834L170.098 32.2031C171.183 32.8418 172.165 31.1496 171.082 30.5119L160.184 24.0922C159.099 23.4535 158.117 25.1457 159.2 25.7834Z" fill="#1F384C"/>
<path d="M156.926 29.0477L167.824 35.4674C168.909 36.1061 169.891 34.4139 168.808 33.7762L157.91 27.3565C156.825 26.7178 155.843 28.41 156.926 29.0477Z" fill="#1F384C"/>
<path d="M206.609 66.8088L210.701 76.0552C210.799 76.2765 210.842 76.5191 210.823 76.7609C210.805 77.0028 210.728 77.2363 210.597 77.4404C210.443 77.6842 210.221 77.877 209.959 77.9942C209.697 78.1115 209.405 78.1482 209.122 78.0995C209.026 78.0847 208.931 78.0593 208.84 78.0239C208.479 77.8835 208.187 77.6049 208.029 77.2489L203.938 68.0026C203.86 67.8263 203.817 67.6364 203.812 67.4435C203.807 67.2507 203.84 67.0587 203.909 66.8787C204.048 66.515 204.325 66.2218 204.68 66.0635C205.034 65.9052 205.436 65.8948 205.798 66.0346C206.16 66.1743 206.452 66.4529 206.609 66.8088Z" fill="#1F384C"/>
<path d="M210.371 75.3095L211.19 77.1756L211.609 79.8213C211.637 79.9955 211.607 80.174 211.523 80.329C211.439 80.4841 211.307 80.607 211.147 80.6787C210.986 80.7503 210.807 80.7667 210.636 80.7253C210.466 80.6839 210.314 80.587 210.203 80.4496L208.507 78.3287L207.699 76.5032L210.371 75.3095Z" fill="#3F3D56"/>
<path d="M203.029 64.2363L203.615 67.9381C203.634 68.0593 203.681 68.1744 203.751 68.2746C203.822 68.3748 203.914 68.4574 204.022 68.5159C204.129 68.5745 204.248 68.6074 204.37 68.6123C204.492 68.6171 204.614 68.5937 204.725 68.5438L205.307 68.284L206.429 70.8193C206.464 70.8983 206.529 70.96 206.609 70.991C206.689 71.0219 206.779 71.0196 206.857 70.9845C206.936 70.9493 206.997 70.8842 207.028 70.8035C207.059 70.7228 207.057 70.6331 207.022 70.554L205.9 68.0187L206.482 67.759C206.674 67.6727 206.825 67.5133 206.901 67.3155C206.977 67.1178 206.972 66.8978 206.887 66.7038C206.859 66.6395 206.822 66.5793 206.778 66.5246L204.435 63.6077C204.325 63.4705 204.173 63.3736 204.002 63.3323C203.832 63.291 203.652 63.3074 203.492 63.3791C203.331 63.4507 203.199 63.5736 203.115 63.7286C203.032 63.8837 203.001 64.0621 203.029 64.2363Z" fill="#3F3D56"/>
<path d="M204.726 70.9178C204.818 70.3999 205.022 69.9086 205.324 69.4785C205.625 69.0484 206.017 68.69 206.472 68.4285C206.926 68.167 207.432 68.0089 207.953 67.9651C208.475 67.9213 209 67.9931 209.491 68.1753L217.568 58.2915L219.524 64.6404L211.554 73.0528C211.195 73.8618 210.553 74.5102 209.75 74.8752C208.947 75.2402 208.038 75.2965 207.197 75.0333C206.355 74.7701 205.638 74.2058 205.183 73.4473C204.728 72.6888 204.565 71.7888 204.726 70.9178Z" fill="#9E616A"/>
<path d="M214.894 70.2756L211.337 65.1116L221.439 51.5761L216.235 40.3696L216.614 27.0398L220.914 26.2415L220.967 26.2684C223.058 27.4777 224.674 29.3694 225.547 31.6293C226.62 34.3244 229.014 44.4419 230.346 50.2327C230.608 51.3549 230.58 52.5257 230.263 53.6336C229.947 54.7415 229.354 55.7496 228.54 56.5619L214.894 70.2756Z" fill="#E4E4E4"/>
<path d="M114.731 45.3236C114.702 45.5745 114.692 45.8272 114.702 46.0796L96.4882 59.396L91.4845 57.1706L87.1555 64.3205L95.6326 69.1253C96.3175 69.5135 97.1091 69.6679 97.8888 69.5655C98.6684 69.463 99.3939 69.1091 99.9563 68.557L118.288 50.563C119.226 50.8026 120.215 50.7495 121.122 50.4106C122.03 50.0718 122.813 49.4633 123.368 48.6661C123.923 47.8689 124.223 46.9208 124.229 45.9479C124.235 44.975 123.946 44.0234 123.4 43.2196C122.855 42.4159 122.079 41.7981 121.175 41.4485C120.272 41.0988 119.284 41.0339 118.343 41.2623C117.402 41.4907 116.552 42.0016 115.907 42.7271C115.262 43.4526 114.852 44.3583 114.731 45.3236Z" fill="#FFB6B6"/>
<path d="M95.8992 59.8828L90.5878 68.7774C90.4367 69.0305 90.233 69.2478 89.9908 69.4147C89.7485 69.5816 89.4733 69.694 89.1839 69.7443C88.8945 69.7946 88.5977 69.7817 88.3138 69.7064C88.0298 69.6311 87.7653 69.4951 87.5384 69.3078L79.5857 62.7441C78.302 61.9596 77.3801 60.6955 77.0223 59.2291C76.6644 57.7626 76.8997 56.2134 77.6766 54.921C78.4535 53.6286 79.7086 52.6985 81.1668 52.3345C82.625 51.9706 84.1672 52.2025 85.4555 52.9795L94.9304 56.929C95.2017 57.0422 95.4455 57.2128 95.6452 57.4292C95.8449 57.6456 95.9959 57.9027 96.0878 58.183C96.1798 58.4633 96.2105 58.7602 96.178 59.0536C96.1454 59.3469 96.0504 59.6297 95.8992 59.8828Z" fill="#1F384C"/>
<path d="M73.1414 137.194H83.5527V119.855H73.1414V137.194Z" fill="#FBFBFB"/>
<path d="M83.0309 129.03L81.6946 131.009L106.682 148.048L108.018 146.069L83.0309 129.03Z" fill="#FBFBFB"/>
<path d="M73.6632 129.03L48.676 146.069L50.0123 148.048L74.9995 131.009L73.6632 129.03Z" fill="#FBFBFB"/>
<path d="M107.35 150.347C109.157 150.347 110.622 148.875 110.622 147.059C110.622 145.243 109.157 143.77 107.35 143.77C105.543 143.77 104.078 145.243 104.078 147.059C104.078 148.875 105.543 150.347 107.35 150.347Z" fill="#FBFBFB"/>
<path d="M78.1984 150.347C80.0056 150.347 81.4705 148.875 81.4705 147.059C81.4705 145.243 80.0056 143.77 78.1984 143.77C76.3913 143.77 74.9263 145.243 74.9263 147.059C74.9263 148.875 76.3913 150.347 78.1984 150.347Z" fill="#FBFBFB"/>
<path d="M49.3442 150.347C51.1513 150.347 52.6163 148.875 52.6163 147.059C52.6163 145.243 51.1513 143.77 49.3442 143.77C47.537 143.77 46.072 145.243 46.072 147.059C46.072 148.875 47.537 150.347 49.3442 150.347Z" fill="#FBFBFB"/>
<path d="M79.3883 130.019H77.0085V147.059H79.3883V130.019Z" fill="#FBFBFB"/>
<path d="M76.1161 127.628H80.5781V104.609H76.1161V127.628Z" fill="#FBFBFB"/>
<path d="M65.5559 108.196V102.815C65.557 101.825 65.9491 100.875 66.6462 100.174C67.3433 99.4739 68.2884 99.0798 69.2742 99.0787H89.2045C90.1903 99.0798 91.1354 99.4739 91.8325 100.174C92.5296 100.875 92.9217 101.825 92.9228 102.815V108.196C92.9217 109.187 92.5296 110.137 91.8325 110.837C91.1354 111.538 90.1903 111.932 89.2045 111.933H69.2742C68.2884 111.932 67.3433 111.538 66.6462 110.837C65.9491 110.137 65.557 109.187 65.5559 108.196Z" fill="#3F3D56"/>
<path d="M101.553 144.978L107.064 144.978L109.687 130.611L101.552 130.611L101.553 144.978Z" fill="#FFB8B8"/>
<path d="M100.147 150.347L117.919 150.346V150.121C117.919 149.208 117.741 148.304 117.393 147.46C117.045 146.617 116.536 145.85 115.893 145.205C115.251 144.559 114.489 144.047 113.649 143.698C112.81 143.349 111.91 143.169 111.002 143.169H111.001L100.146 143.169L100.147 150.347Z" fill="#2F2E41"/>
<path d="M109.797 136.069L120.785 111.306C121.702 109.218 121.804 106.861 121.069 104.702C120.334 102.543 118.817 100.741 116.82 99.6557L92.9858 86.8114L82.1096 85.8818L72.0771 84.9653L72.0047 85.0884C71.9122 85.2455 69.7551 88.9898 71.2132 93.0955C72.3192 96.2097 75.1961 98.6422 79.7639 100.326C90.4257 104.254 102.742 107.612 107.543 108.873C107.755 108.928 107.953 109.027 108.124 109.164C108.296 109.301 108.436 109.473 108.537 109.668C108.638 109.861 108.697 110.074 108.713 110.291C108.728 110.509 108.698 110.727 108.625 110.933L98.4163 133.982C98.3097 134.275 98.2713 134.588 98.3041 134.897C98.3369 135.207 98.44 135.505 98.6055 135.768C98.771 136.031 98.9944 136.253 99.2585 136.415C99.5227 136.578 99.8205 136.678 100.129 136.706L107.757 137.265C107.822 137.271 107.886 137.274 107.95 137.274C108.341 137.274 108.723 137.16 109.051 136.946C109.379 136.732 109.638 136.427 109.797 136.069Z" fill="#2F2E41"/>
<path d="M97.9557 144.978L103.467 144.978L106.09 130.611L97.9551 130.611L97.9557 144.978Z" fill="#FFB8B8"/>
<path d="M96.5502 150.347L114.323 150.346V150.121C114.323 149.208 114.144 148.304 113.796 147.46C113.449 146.617 112.939 145.85 112.297 145.205C111.654 144.559 110.892 144.047 110.053 143.698C109.213 143.349 108.314 143.169 107.405 143.169H107.405L96.5498 143.169L96.5502 150.347Z" fill="#2F2E41"/>
<path d="M105.75 137.424L116.739 112.661C117.656 110.574 117.758 108.216 117.023 106.057C116.288 103.898 114.771 102.097 112.774 101.011L88.9394 88.1669L78.0633 87.2372L70.2053 86.5522L70.2064 86.4439C70.1139 86.601 67.9568 90.3453 69.4149 94.4509C70.5209 97.5652 71.1498 99.9977 75.7176 101.681C86.3794 105.61 98.6959 108.967 103.496 110.229C103.708 110.283 103.907 110.382 104.078 110.519C104.249 110.656 104.39 110.828 104.49 111.024C104.591 111.217 104.651 111.429 104.666 111.647C104.681 111.864 104.652 112.083 104.579 112.288L94.37 135.338C94.2634 135.63 94.225 135.943 94.2578 136.253C94.2906 136.562 94.3937 136.86 94.5592 137.123C94.7247 137.387 94.9481 137.608 95.2122 137.771C95.4764 137.934 95.7742 138.033 96.0827 138.062L103.711 138.62C103.775 138.626 103.84 138.629 103.904 138.629C104.295 138.629 104.677 138.515 105.005 138.301C105.332 138.088 105.591 137.783 105.75 137.424Z" fill="#2F2E41"/>
<path d="M98.8574 30.7625C100.268 24.8 96.6025 18.8169 90.6694 17.399C84.7363 15.981 78.7827 19.6651 77.3717 25.6276C75.9607 31.5901 79.6266 37.5732 85.5597 38.9912C91.4929 40.4091 97.4464 36.7251 98.8574 30.7625Z" fill="#FFB8B8"/>
<path d="M126.178 70.8311C130.796 64.6587 134.446 57.8124 137.002 50.53C137.15 50.0944 137.14 49.6201 136.972 49.1916C136.805 48.7631 136.492 48.4081 136.089 48.1899L120.288 39.6814C120.032 39.5427 119.748 39.4644 119.458 39.4526C119.168 39.4407 118.879 39.4956 118.613 39.613C118.342 39.7313 118.101 39.9102 117.909 40.136C117.718 40.3618 117.58 40.6286 117.506 40.9161C115.667 47.9336 112.21 54.4175 107.415 59.8432C107.217 60.064 107.073 60.3272 106.992 60.6127C106.911 60.8983 106.896 61.1986 106.948 61.4908C106.998 61.7784 107.113 62.0507 107.283 62.287C107.454 62.5233 107.676 62.7174 107.932 62.8544L123.733 71.363C124.137 71.5796 124.605 71.645 125.053 71.5476C125.5 71.4502 125.899 71.1963 126.178 70.8311Z" fill="#CCCCCC"/>
<path d="M125.1 70.0169C125.015 70.1235 124.895 70.197 124.762 70.2246C124.629 70.2522 124.49 70.2323 124.37 70.1683L108.569 61.6595C108.492 61.6194 108.426 61.5618 108.375 61.4915C108.324 61.4212 108.29 61.34 108.276 61.2543C108.259 61.1637 108.264 61.0706 108.289 60.9822C108.315 60.8938 108.36 60.8125 108.422 60.7446C113.358 55.1591 116.917 48.4841 118.811 41.2598C118.833 41.1706 118.875 41.0876 118.934 41.0175C118.993 40.9473 119.067 40.8919 119.151 40.8555C119.231 40.8199 119.317 40.8033 119.403 40.8069C119.49 40.8105 119.575 40.8342 119.651 40.8762L135.451 49.3847C135.571 49.4497 135.664 49.5546 135.715 49.6814C135.766 49.8083 135.771 49.9489 135.73 50.0792C133.219 57.2312 129.634 63.9549 125.1 70.0169Z" fill="white"/>
<path d="M119.571 48.9601L130.47 55.3797C131.554 56.0185 132.536 54.3263 131.454 53.6885L120.555 47.2689C119.471 46.6301 118.489 48.3224 119.571 48.9601Z" fill="#CCCCCC"/>
<path d="M117.623 52.5508L128.521 58.9705C129.606 59.6092 130.587 57.917 129.505 57.2793L118.606 50.8596C117.522 50.2209 116.54 51.9131 117.623 52.5508Z" fill="#CCCCCC"/>
<path d="M116.091 56.1276L126.003 62.0408C126.989 62.6291 128.044 61.4128 127.059 60.8254L117.148 54.9122C116.162 54.3238 115.107 55.5402 116.091 56.1276Z" fill="#CCCCCC"/>
<path d="M113.075 59.7323L123.974 66.152C125.058 66.7907 126.04 65.0985 124.957 64.4608L114.059 58.0411C112.974 57.4024 111.992 59.0946 113.075 59.7323Z" fill="#CCCCCC"/>
<path d="M94.4815 87.7103L72.6295 87.579L72.6236 87.4228C72.2069 76.4045 73.5469 66.4234 76.7201 56.9097C76.7649 56.5536 76.8134 56.173 76.861 55.7994C77.403 51.543 77.8334 48.1636 81.8609 46.9051C81.5253 46.4567 81.3276 45.9195 81.2918 45.3596C81.2665 44.9876 81.315 44.6141 81.4346 44.2611C81.5542 43.908 81.7425 43.5824 81.9886 43.3032C82.224 43.0335 82.5104 42.8137 82.8313 42.6564C83.1521 42.4991 83.5008 42.4075 83.8572 42.387L91.6351 42.1208C92.0439 42.118 92.4416 42.2536 92.7644 42.5056C93.3566 42.9477 93.7727 43.5872 93.9384 44.3096C94.1041 45.0319 94.0085 45.79 93.6686 46.448C93.577 46.6313 93.542 46.7148 93.5285 46.7511C93.8051 48.207 94.6255 49.9364 95.4937 51.7665C96.7368 54.3869 98.1458 57.3567 98.508 60.5339C98.7037 62.2495 98.6224 63.9855 98.2672 65.6749C98.1051 66.5853 98.0678 67.5137 98.1563 68.4343C98.2273 69.7993 98.2943 71.0881 97.5266 72.3346C97.3309 72.6725 97.107 73.0327 96.8442 73.4318L95.7642 76.0264L94.4815 87.7103Z" fill="#1F384C"/>
<path d="M61.689 103.13V58.258C61.6906 56.7958 62.2693 55.3939 63.2981 54.36C64.327 53.3261 65.7219 52.7445 67.1769 52.7429H68.6947C70.1497 52.7445 71.5446 53.3261 72.5734 54.36C73.6022 55.3939 74.1809 56.7958 74.1826 58.258V103.13C74.1809 104.592 73.6022 105.994 72.5734 107.028C71.5446 108.062 70.1497 108.643 68.6947 108.645H67.1769C65.7219 108.643 64.327 108.062 63.2981 107.028C62.2693 105.994 61.6906 104.592 61.689 103.13Z" fill="#3F3D56"/>
<path d="M120.288 62.7365C120.131 62.9338 119.99 63.1433 119.866 63.3629L97.4019 65.0113L94.3209 60.4668L86.8887 64.2432L91.5649 72.8209C91.9427 73.5139 92.534 74.065 93.2499 74.3915C93.9659 74.718 94.768 74.8024 95.5357 74.6318L120.557 69.0731C121.228 69.7743 122.095 70.2536 123.044 70.4472C123.993 70.6408 124.978 70.5396 125.868 70.1569C126.758 69.7742 127.511 69.1283 128.027 68.305C128.543 67.4817 128.797 66.5201 128.756 65.548C128.715 64.576 128.38 63.6396 127.796 62.8634C127.213 62.0871 126.408 61.5079 125.488 61.2027C124.569 60.8975 123.579 60.8807 122.65 61.1547C121.721 61.4287 120.897 61.9804 120.288 62.7365Z" fill="#FFB6B6"/>
<path d="M96.646 65.1123L87.4629 69.8493C87.2016 69.984 86.9145 70.0606 86.6211 70.0738C86.3277 70.0871 86.0349 70.0366 85.7627 69.9258C85.4904 69.815 85.2452 69.6466 85.0435 69.432C84.8419 69.2174 84.6887 68.9616 84.5943 68.6821L81.2874 58.8887C80.6093 57.5443 80.4887 55.9847 80.9518 54.5511C81.4149 53.1174 82.4241 51.9265 83.7586 51.2386C79.6879 53.3384 88.166 47.3738 91.4017 53.709L97.3746 62.0896C97.5455 62.3296 97.663 62.6038 97.719 62.8936C97.775 63.1833 97.7682 63.4818 97.699 63.7686C97.6299 64.0555 97.5 64.324 97.3183 64.5559C97.1366 64.7877 96.9073 64.9775 96.646 65.1123Z" fill="#1F384C"/>
<path d="M83.1263 38.9885C82.4616 38.9885 81.7283 38.6665 80.9015 38.0143C78.4685 36.0944 76.7294 33.4254 75.9511 30.4166C75.1727 27.4079 75.3981 24.2256 76.5926 21.358C77.1938 19.9149 78.3181 17.9534 80.2606 16.8039C81.657 15.9779 83.2973 15.6795 84.7252 15.4647C85.9613 15.2785 87.213 15.1303 88.4454 15.0248C89.918 14.8982 91.6189 14.8128 93.1703 15.4051C94.3069 15.8392 95.2744 16.6059 96.21 17.3474C96.5361 17.6056 96.8733 17.8731 97.2111 18.1204C98.0295 18.762 98.9733 19.2227 99.9811 19.4724C100.194 19.5167 100.394 19.6063 100.57 19.7353C100.745 19.8643 100.89 20.0295 100.997 20.2199C101.105 20.4134 101.171 20.6281 101.189 20.8493C101.208 21.0705 101.179 21.2933 101.105 21.5024C100.959 21.9136 100.827 22.2843 101.094 22.686C101.193 22.8275 101.324 22.9425 101.478 23.021C101.631 23.0995 101.801 23.139 101.973 23.1361C102.064 23.1346 102.153 23.156 102.234 23.1982C102.314 23.2404 102.383 23.3021 102.434 23.3778C102.485 23.4527 102.517 23.5393 102.528 23.6297C102.538 23.7202 102.527 23.8119 102.494 23.8967L102.451 24.0074C102.565 24.0181 102.675 24.0565 102.772 24.1194C102.868 24.1824 102.947 24.2678 103.004 24.3685C103.087 24.5119 103.119 24.6796 103.095 24.8438C103.071 25.0081 102.991 25.1591 102.87 25.272C101.885 26.2146 100.656 26.8608 99.3237 27.1371C98.412 27.3169 97.474 27.3147 96.5631 27.1308L96.4165 27.1021L96.4345 26.9389C92.7497 25.6182 89.4236 27.8595 87.5274 30.4219L87.2535 30.2481C87.3005 30.1526 87.3279 30.0486 87.3339 29.9422C87.3399 29.8358 87.3243 29.7293 87.2883 29.6291C87.2501 29.5088 87.1887 29.3973 87.1076 29.3009C87.0265 29.2045 86.9272 29.1252 86.8156 29.0674C86.5897 28.9737 86.3414 28.9494 86.1018 28.9975C85.8622 29.0455 85.6422 29.1638 85.4694 29.3374C85.2935 29.5227 85.1578 29.7428 85.0712 29.9837C84.9845 30.2246 84.9487 30.4809 84.9661 30.7365C85.0159 31.2781 85.1532 31.808 85.3726 32.3052C85.4617 32.543 85.554 32.7891 85.6289 33.0371C86.0486 34.4461 85.9367 35.961 85.3146 37.2922C85.0276 37.8995 84.5086 38.6738 83.6659 38.9139C83.4903 38.9637 83.3087 38.9888 83.1263 38.9885Z" fill="#2F2E41"/>
</g>
<defs>
<clipPath id="clip0_553_36338">
<rect width="263" height="151" fill="white"/>
</clipPath>
</defs>
</svg>
