<svg width="62" height="62" viewBox="0 0 62 62" fill="none" xmlns="http://www.w3.org/2000/svg">
<rect width="62" height="62" rx="31" fill="#FF9500" fill-opacity="0.2"/>
<g clip-path="url(#clip0_95_17095)">
<path d="M32.5958 20.5447C32.4349 20.2645 32.203 20.0317 31.9233 19.8698C31.6437 19.7079 31.3264 19.6227 31.0033 19.6227C30.6802 19.6227 30.3628 19.7079 30.0832 19.8698C29.8036 20.0317 29.5716 20.2645 29.4108 20.5447L18.2681 39.5036C17.5255 40.7679 18.416 42.375 19.8606 42.375H42.1443C43.5889 42.375 44.481 40.7662 43.7368 39.5036L32.5958 20.5447ZM31 26.125C31.8694 26.125 32.5503 26.8757 32.4625 27.7419L31.8938 33.4407C31.8746 33.6646 31.7722 33.8732 31.6067 34.0251C31.4412 34.1771 31.2247 34.2614 31 34.2614C30.7753 34.2614 30.5588 34.1771 30.3933 34.0251C30.2278 33.8732 30.1254 33.6646 30.1063 33.4407L29.5375 27.7419C29.5171 27.5375 29.5397 27.3311 29.6039 27.136C29.6681 26.9409 29.7724 26.7614 29.9102 26.6091C30.048 26.4568 30.2161 26.335 30.4038 26.2516C30.5915 26.1682 30.7946 26.1251 31 26.125ZM31.0033 35.875C31.4342 35.875 31.8476 36.0462 32.1523 36.3509C32.457 36.6557 32.6283 37.069 32.6283 37.5C32.6283 37.931 32.457 38.3443 32.1523 38.649C31.8476 38.9538 31.4342 39.125 31.0033 39.125C30.5723 39.125 30.159 38.9538 29.8542 38.649C29.5495 38.3443 29.3783 37.931 29.3783 37.5C29.3783 37.069 29.5495 36.6557 29.8542 36.3509C30.159 36.0462 30.5723 35.875 31.0033 35.875Z" fill="#FF9500"/>
</g>
<rect x="3.5" y="3.5" width="55" height="55" rx="27.5" stroke="#FF9500" stroke-opacity="0.05" stroke-width="7"/>
<defs>
<clipPath id="clip0_95_17095">
<rect width="26" height="26" fill="white" transform="translate(18 18)"/>
</clipPath>
</defs>
</svg>
